<?xml version="1.0" encoding="UTF-8" standalone="no"?>
<!-- Generator: Adobe Illustrator 22.0.1, SVG Export Plug-In . SVG Version: 6.00 Build 0)  -->

<svg
   xmlns:dc="http://purl.org/dc/elements/1.1/"
   xmlns:cc="http://creativecommons.org/ns#"
   xmlns:rdf="http://www.w3.org/1999/02/22-rdf-syntax-ns#"
   xmlns:svg="http://www.w3.org/2000/svg"
   xmlns="http://www.w3.org/2000/svg"
   xmlns:sodipodi="http://sodipodi.sourceforge.net/DTD/sodipodi-0.dtd"
   xmlns:inkscape="http://www.inkscape.org/namespaces/inkscape"
   version="1.1"
   id="Layer_1"
   x="0px"
   y="0px"
   viewBox="0 0 498.6 114"
   style="enable-background:new 0 0 498.6 114;"
   xml:space="preserve"
   sodipodi:docname="logo_lfe_powsybl.svg"
   inkscape:version="0.92.3 (2405546, 2018-03-11)"><metadata
   id="metadata91"><rdf:RDF><cc:Work
       rdf:about=""><dc:format>image/svg+xml</dc:format><dc:type
         rdf:resource="http://purl.org/dc/dcmitype/StillImage" /><dc:title></dc:title></cc:Work></rdf:RDF></metadata><defs
   id="defs89">
	
	
	
	
	
	
	
	
	
	
	
	
	
	
	
	
	
	
	
	
	

	
	
	
	
	
	
	
	
	

		
		
	</defs><sodipodi:namedview
   pagecolor="#ffffff"
   bordercolor="#666666"
   borderopacity="1"
   objecttolerance="10"
   gridtolerance="10"
   guidetolerance="10"
   inkscape:pageopacity="0"
   inkscape:pageshadow="2"
   inkscape:window-width="1680"
   inkscape:window-height="986"
   id="namedview87"
   showgrid="false"
   inkscape:zoom="2"
   inkscape:cx="179.23848"
   inkscape:cy="52.934291"
   inkscape:window-x="0"
   inkscape:window-y="27"
   inkscape:window-maximized="1"
   inkscape:current-layer="Layer_1" />
<style
   type="text/css"
   id="style2">
	.st0{fill:#FFB259;}
	.st1{fill:#6F2277;}
	.st2{fill:#FD495C;}
	.st3{fill:#009ADE;}
	.st4{fill:#003764;}
</style>

<path
   class="st0"
   d="M140.5,87.8v26.1h-9.3V47.7h21.6c6.3,0,11.2,1.8,14.8,5.5s5.4,8.5,5.4,14.5s-1.8,10.9-5.4,14.5  c-3.6,3.7-8.5,5.5-14.8,5.5h-12.3V87.8z M140.5,80.7h12.3c3.6,0,6.3-1.2,8.2-3.7c1.9-2.4,2.8-5.5,2.8-9.2s-0.9-6.8-2.8-9.3  c-1.8-2.5-4.6-3.7-8.2-3.7h-12.3V80.7z"
   id="path48" /><path
   class="st0"
   d="m 227.5,89.694714 c 0,7.679588 -2.1,13.609396 -6.4,17.789426 -4.3,4.18003 -10,6.41586 -17.1,6.41586 -7.1,0 -12.7,-2.13862 -16.8,-6.41586 -4.2,-4.27724 -6.3,-10.207047 -6.3,-17.789426 V 72.002496 c 0,-7.582379 2.1,-13.512188 6.3,-17.886637 C 191.4,49.83862 197,47.7 204,47.7 c 7.1,0 12.9,2.13862 17.1,6.415859 4.3,4.277239 6.4,10.207048 6.4,17.886637 z m -9.2,-17.886638 c 0,-5.638179 -1.2,-9.818208 -3.7,-12.734508 -2.5,-2.916299 -6,-4.374449 -10.6,-4.374449 -4.4,0 -7.9,1.45815 -10.2,4.374449 -2.4,2.9163 -3.6,7.193539 -3.6,12.734508 v 17.886638 c 0,5.638179 1.2,9.915418 3.6,12.831716 2.4,2.9163 5.8,4.37445 10.3,4.37445 4.6,0 8.1,-1.45815 10.6,-4.37445 2.5,-2.916298 3.7,-7.193537 3.7,-12.928926 V 71.808076 Z"
   id="path50"
   inkscape:connector-curvature="0"
   style="fill:#ffb259;stroke-width:0.98595124" /><path
   class="st0"
   d="M282.7,94.8h0.3l8.6-47.1h9.7l-13.6,66.2h-8.5l-11.6-47h-0.3l-11.6,47h-8.5l-13.6-66.2h9.8l8.7,47h0.3l11.2-47  h8.1L282.7,94.8z"
   id="path52" /><path
   class="st1"
   d="m 339.5,96.863235 c 0,-2.920588 -0.9,-5.354411 -2.6,-7.30147 -1.7,-1.947059 -4.8,-3.602059 -9.2,-5.159706 -6.2,-1.849706 -11,-4.28353 -14.4,-7.301471 -3.3,-3.017941 -5,-6.912059 -5,-11.877059 0,-5.062353 1.8,-9.248529 5.5,-12.558529 3.7,-3.31 8.4,-4.965 14.2,-4.965 6.1,0 11.1,1.849706 14.8,5.451765 3.7,3.699411 5.5,8.275 5.4,13.726764 l -0.1,0.292059 h -8.9 c 0,-3.796764 -1,-6.814706 -3.1,-9.151176 -2.1,-2.336471 -4.8,-3.504706 -8.2,-3.504706 -3.3,0 -5.8,0.973529 -7.6,3.017941 -1.8,2.044412 -2.7,4.478235 -2.7,7.496177 0,2.823235 1,5.159705 2.9,6.912058 1.9,1.849706 5.1,3.602059 9.7,5.159706 6.1,1.947059 10.7,4.380883 13.8,7.496177 3.2,3.115294 4.7,7.106764 4.7,12.071764 0,5.257061 -1.9,9.443231 -5.6,12.558531 -3.7,3.11529 -8.6,4.67294 -14.7,4.67294 -5.8,0 -10.9,-1.655 -15.2,-5.06235 -4.3,-3.40736 -6.4,-8.17765 -6.3,-14.505591 L 307,94.04 h 8.9 c 0,4.380882 1.2,7.59353 3.6,9.73529 2.4,2.14177 5.3,3.21265 8.9,3.21265 3.4,0 6.1,-0.97353 8.1,-2.82323 2,-1.84971 3,-4.186181 3,-7.301475 z"
   id="path78"
   inkscape:connector-curvature="0"
   style="fill:#6f2277;stroke-width:0.98667592" /><path
   class="st1"
   d="M378.3,80h0.3l13.9-32.3h10.4L383,90.1v23.8h-9.3V89.4l-19.6-41.7h10.3L378.3,80z"
   id="path80" /><path
   class="st2"
   d="M 410.5,113.80015 V 47.7 h 18.4 c 6.4,0 11.3,1.497738 14.9,4.493213 3.6,2.995475 5.4,7.388838 5.4,13.379789 0,3.095324 -0.8,5.791251 -2.3,8.187631 -1.5,2.396381 -3.7,4.193666 -6.5,5.292007 3.9,0.599095 6.8,2.496229 8.9,5.491704 2.1,2.995475 3.1,6.590045 3.1,10.683861 0,6.090795 -1.8,10.683865 -5.3,13.879035 -3.5,3.19517 -8.4,4.79276 -14.5,4.79276 z m 9.3,-37.443438 h 10.5 c 3,-0.09985 5.3,-1.098341 7,-2.895626 1.7,-1.797285 2.5,-4.393364 2.5,-7.788235 0,-3.59457 -0.9,-6.390347 -2.8,-8.187632 -1.9,-1.797285 -4.6,-2.695928 -8.2,-2.695928 h -9.1 v 21.567421 z m 0,6.590045 v 23.863953 h 12.8 c 3.3,0 5.9,-0.99849 7.8,-2.99548 1.9,-1.99698 2.7,-4.892606 2.7,-8.686874 0,-3.59457 -0.9,-6.490196 -2.7,-8.686878 -1.8,-2.196682 -4.3,-3.295022 -7.5,-3.494721 h -0.5 c 0,0 -12.6,0 -12.6,0 z"
   id="path82"
   inkscape:connector-curvature="0"
   style="fill:#fd495c;stroke-width:0.99924558" /><path
   class="st2"
   d="M471.4,106.9h26.9v7h-36.1V47.7h9.3L471.4,106.9L471.4,106.9z"
   id="path84" />


<polygon
   style="fill:#009ade"
   id="polygon54"
   points="148.1,28.5 148.1,22.9 136.8,22.9 136.8,11.6 131.1,11.6 131.1,28.5 "
   class="st3"
   transform="matrix(1,0,0,1.0059172,0.1,-0.16863905)" /><polygon
   style="fill:#003764"
   id="polygon56"
   points="153.7,6 153.7,22.9 150.9,22.9 150.9,28.5 159.4,28.5 159.4,0.3 131.1,0.3 131.1,8.8 136.8,8.8 136.8,6 "
   class="st4"
   transform="matrix(1.0035336,0,0,1.0070922,-0.36325088,-0.20212766)" /><path
   class="st4"
   d="m 166.8,0.1 h 8.6 v 21.097143 h 12.4 V 28.5 h -21 z"
   id="path58"
   inkscape:connector-curvature="0"
   style="fill:#003764;stroke-width:1.00711751" /><path
   class="st4"
   d="m 191.5,0.1 h 21.6 v 7.3290323 h -13 v 3.5627237 h 11.1 v 6.71828 H 200.1 V 28.5 h -8.6 z"
   id="path60"
   inkscape:connector-curvature="0"
   style="fill:#003764;stroke-width:1.00892079" /><path
   style="fill:#009ade;stroke-width:1.0035398"
   inkscape:connector-curvature="0"
   id="path64"
   d="M 235.3,28.5 H 219.7 V 0.1 h 15.6 v 1.812766 h -13.6 v 10.775886 h 12.8 v 1.812766 h -12.8 v 12.185816 h 13.6 z"
   class="st3" /><path
   style="fill:#009ade;stroke-width:1.0035398"
   inkscape:connector-curvature="0"
   id="path66"
   d="m 262.5,28.5 h -2 L 243.6,3.322695 h -0.2 c 0.2,3.0212766 0.2,5.2368795 0.2,6.747518 v 18.329078 h -1.9 V 0.1 h 2 l 16.9,25.076596 h 0.1 c -0.1,-2.316312 -0.2,-4.531915 -0.2,-6.646809 V 0.1 h 1.9 v 28.4 z"
   class="st3" /><path
   style="fill:#009ade;stroke-width:1.0035398"
   inkscape:connector-curvature="0"
   id="path68"
   d="M 286.1,28.5 H 270.5 V 0.1 h 15.6 v 1.812766 h -13.6 v 10.775886 h 12.8 v 1.812766 h -12.8 v 12.185816 h 13.6 z"
   class="st3" /><path
   style="fill:#009ade;stroke-width:1.0035398"
   inkscape:connector-curvature="0"
   id="path70"
   d="M 294.6,16.112766 V 28.5 h -2 V 0.1 h 6.8 c 3.5,0 6.2,0.60425532 7.8,1.9134752 1.7,1.3092198 2.5,3.222695 2.5,5.8411347 0,1.9134752 -0.5,3.5248231 -1.5,4.8340421 -1,1.30922 -2.5,2.215603 -4.6,2.819859 l 7.7,12.89078 H 309 l -7.4,-12.387234 z m 0,-1.712057 h 5.4 c 2.4,0 4.3,-0.503546 5.6,-1.611347 1.3,-1.107802 2,-2.61844 2,-4.7333336 0,-2.1148936 -0.7,-3.7262412 -2,-4.7333334 -1.3,-1.0070922 -3.4,-1.5106383 -6.4,-1.5106383 h -4.7 V 14.400709 Z"
   class="st3" /><path
   style="fill:#009ade;stroke-width:1.00176525"
   inkscape:connector-curvature="0"
   id="path72"
   d="m 327.3,14.249823 h 10.3 v 12.54417 C 334.9,27.897879 331.9,28.5 328.5,28.5 c -4.4,0 -7.8,-1.20424 -10.1,-3.713074 -2.3,-2.508835 -3.5,-5.920848 -3.5,-10.436749 0,-2.809894 0.6,-5.3187282 1.7,-7.4261487 1.2,-2.2077739 2.8,-3.8134276 5,-5.0176679 C 323.8,0.70212017 326.3,0.1 329.1,0.1 c 3,0 5.8,0.60212017 8.2,1.7060071 l -0.8,1.706007 c -2.4,-1.1038869 -4.9,-1.706007 -7.5,-1.706007 -3.7,0 -6.6,1.1038869 -8.7,3.4120141 -2.2,2.2077738 -3.2,5.3187278 -3.2,9.1321558 0,4.114487 1,7.325795 3.1,9.332861 2,2.107421 5.1,3.110955 9,3.110955 2.6,0 4.8,-0.401414 6.5,-1.103887 v -9.633922 h -8.3 v -1.806361 z"
   class="st3" /><path
   style="fill:#009ade;stroke-width:1.00711751"
   inkscape:connector-curvature="0"
   id="path74"
   d="M 351.2,15.618571 359.5,0.1 h 2.1 l -9.4,17.445714 V 28.5 h -2 V 17.647143 L 340.7,0.1 h 2.3 z"
   class="st3" />




<g
   id="g1059"
   inkscape:export-filename="/tmp/after.png"
   inkscape:export-xdpi="215.57895"
   inkscape:export-ydpi="215.57895"><rect
     y="93.228737"
     x="22.417494"
     height="3.4360957"
     width="0.69605875"
     id="rect991"
     style="fill:#6f2277;fill-opacity:1" /><rect
     y="32.5"
     x="86.75"
     height="34.125"
     width="10.375"
     id="rect983"
     style="fill:#6f2277;fill-opacity:1" /><rect
     y="62.700001"
     x="68.400002"
     height="11.366765"
     width="22.799997"
     id="rect892"
     style="fill:#ffb259;fill-opacity:1" /><rect
     y="49"
     x="51.375"
     height="29.375"
     width="11.125"
     id="rect985"
     style="fill:#6f2277;fill-opacity:1" /><rect
     y="12.706954"
     x="51.79557"
     height="38.006989"
     width="10.606602"
     id="rect981"
     style="fill:#6f2277;fill-opacity:1" /><rect
     y="11.4"
     x="57.050781"
     height="11.400001"
     width="22.74922"
     id="rect876"
     style="fill:#ffb259;fill-opacity:1" /><rect
     y="11.4"
     x="34.200001"
     height="11.366764"
     width="22.799999"
     id="rect874"
     style="fill:#ffb259;fill-opacity:1" /><polygon
     transform="matrix(1.0155902,0,0,1,34.2,-51.4)"
     class="st0"
     points="22.5,51.4 44.9,62.8 22.5,74.2 0,62.8 "
     id="polygon16-3-3"
     style="fill:#ffb259" /><polygon
     transform="matrix(1.0155902,0,0,1,34.2,-17.2)"
     class="st0"
     points="44.9,62.8 22.5,74.2 0,62.8 22.5,51.4 "
     id="polygon16-3-7"
     style="fill:#ffb259" /><polygon
     transform="matrix(1.0133333,0,0,0.99708455,34.2,-51.21691)"
     class="st1"
     points="0,62.8 22.5,74.2 22.5,97.1 0,85.6 "
     id="polygon18-60-20"
     style="fill:#6f2277" /><rect
     y="30.561399"
     x="16.970562"
     height="37.299881"
     width="12.374369"
     id="rect979"
     style="fill:#6f2277;fill-opacity:1" /><polygon
     transform="matrix(1.0155902,0,0,1,0,-34.3)"
     class="st0"
     points="0,62.8 22.5,51.4 44.9,62.8 22.5,74.2 "
     id="polygon16-3-9"
     style="fill:#ffb259;fill-opacity:1" /><polygon
     transform="matrix(1.0178571,0,0,0.99708455,34.098215,-51.21691)"
     class="st2"
     points="44.9,62.8 44.9,85.6 22.5,97.1 22.5,74.2 "
     id="polygon20-6-2"
     style="fill:#fd495c" /><polygon
     transform="matrix(1.0178571,0,0,0.99708455,34.098215,-17.01691)"
     class="st2"
     points="44.9,62.8 44.9,85.6 22.5,97.1 22.5,74.2 "
     id="polygon20-6-5"
     style="fill:#fd495c" /><rect
     y="96.445312"
     x="91.148438"
     height="0.42578125"
     width="0.08984375"
     id="rect1011"
     style="fill:#6f2277;fill-opacity:1" /><rect
     y="94.571136"
     x="90.830078"
     height="2.0439806"
     width="0.75130093"
     id="rect1009"
     style="fill:#6f2277;fill-opacity:1" /><rect
     y="71.61779"
     x="88.476738"
     height="23.290329"
     width="5.4800777"
     id="rect1007"
     style="fill:#6f2277;fill-opacity:1" /><polygon
     transform="matrix(1.0155902,0,0,1,68.4,-0.1)"
     class="st0"
     points="44.9,62.8 22.5,74.2 0,62.8 22.5,51.4 "
     id="polygon16-3-29"
     style="fill:#ffb259" /><polygon
     transform="matrix(1.0133333,0,0,0.99708455,34.2,-17.01691)"
     class="st1"
     points="0,62.8 22.5,74.2 22.5,97.1 0,85.6 "
     id="polygon18-60-9"
     style="fill:#6f2277" /><rect
     y="70.125"
     x="19.375"
     height="23.625"
     width="6.0625"
     id="rect987"
     style="fill:#6f2277;fill-opacity:1" /><polygon
     transform="matrix(1.0155902,0,0,1,0,-0.1)"
     class="st0"
     points="44.9,62.8 22.5,74.2 0,62.8 22.5,51.4 "
     id="polygon16-3-1"
     style="fill:#ffb259" /><rect
     y="62.700001"
     x="0"
     height="11.4"
     width="22.850779"
     id="rect904"
     style="fill:#ffb259;fill-opacity:1" /><rect
     y="96.613281"
     x="22.769531"
     height="0.26171875"
     width="0.078125"
     id="rect995"
     style="fill:#6f2277;fill-opacity:1" /><polygon
     transform="matrix(1.0133333,0,0,0.99708455,0,0.0830902)"
     class="st1"
     points="0,62.8 22.5,74.2 22.5,97.1 0,85.6 "
     id="polygon18-60-2"
     style="fill:#6f2277;fill-opacity:1" /><rect
     y="62.700001"
     x="22.799999"
     height="11.366764"
     width="22.800001"
     id="rect902"
     style="fill:#ffb259;fill-opacity:1" /><polygon
     transform="matrix(1.0178571,0,0,0.99708455,-0.10178475,0.0830902)"
     class="st2"
     points="44.9,62.8 44.9,85.6 22.5,97.1 22.5,74.2 "
     id="polygon20-6-6"
     style="fill:#fd495c" /><rect
     y="28.5"
     x="22.799999"
     height="11.366764"
     width="22.799999"
     id="rect872"
     style="fill:#ffb259;fill-opacity:1" /><polygon
     transform="matrix(1.0178571,0,0,0.99708455,-0.10178475,-34.11691)"
     class="st2"
     points="44.9,62.8 44.9,85.6 22.5,97.1 22.5,74.2 "
     id="polygon20-6-7"
     style="fill:#fd495c" /><rect
     y="28.5"
     x="0"
     height="11.366764"
     width="22.799999"
     id="rect870"
     style="fill:#ffb259;fill-opacity:1" /><polygon
     transform="matrix(1.0133333,0,0,0.99708455,0,-34.11691)"
     class="st1"
     points="0,62.8 22.5,74.2 22.5,97.1 0,85.6 "
     id="polygon18-60-8"
     style="fill:#6f2277" /><rect
     y="28.5"
     x="68.400002"
     height="11.366764"
     width="22.799999"
     id="rect878"
     style="fill:#ffb259;fill-opacity:1" /><polygon
     transform="matrix(1.0155902,0,0,1,68.4,-34.3)"
     class="st0"
     points="44.9,62.8 22.5,74.2 0,62.8 22.5,51.4 "
     id="polygon16-3-73"
     style="fill:#ffb259" /><rect
     y="28.5"
     x="91.199997"
     height="11.366764"
     width="22.800003"
     id="rect886"
     style="fill:#ffb259;fill-opacity:1" /><polygon
     transform="matrix(1.0133333,0,0,0.99708455,68.4,-34.11691)"
     class="st1"
     points="0,62.8 22.5,74.2 22.5,97.1 0,85.6 "
     id="polygon18-60-6"
     style="fill:#6f2277" /><polygon
     transform="matrix(1.0178571,0,0,0.99708455,68.298215,-34.11691)"
     class="st2"
     points="44.9,62.8 44.9,85.6 22.5,97.1 22.5,74.2 "
     id="polygon20-6-1"
     style="fill:#fd495c" /><rect
     y="62.700001"
     x="91.199997"
     height="11.366764"
     width="22.799999"
     id="rect890"
     style="fill:#ffb259;fill-opacity:1" /><polygon
     transform="matrix(1.0178571,0,0,0.99708455,68.298215,0.0830902)"
     class="st2"
     points="44.9,62.8 44.9,85.6 22.5,97.1 22.5,74.2 "
     id="polygon20-6-19"
     style="fill:#fd495c" /><polygon
     transform="matrix(1.0133333,0,0,0.99708455,68.4,0.0830902)"
     class="st1"
     points="0,62.8 22.5,74.2 22.5,97.1 0,85.6 "
     id="polygon18-60-3"
     style="fill:#6f2277" /><rect
     y="113.41406"
     x="56.9375"
     height="0.53515625"
     width="0.125"
     id="rect1001"
     style="fill:#6f2277;fill-opacity:1" /><rect
     y="109.75781"
     x="56.414062"
     height="3.765625"
     width="1.2265625"
     id="rect999"
     style="fill:#6f2277;fill-opacity:1" /><rect
     y="86.8125"
     x="50.4375"
     height="23.3125"
     width="12.125"
     id="rect997"
     style="fill:#6f2277;fill-opacity:1" /><polygon
     transform="matrix(1.0155902,0,0,1,34.2,17)"
     class="st0"
     points="44.9,62.8 22.5,74.2 0,62.8 22.5,51.4 "
     id="polygon16-3-2"
     style="fill:#ffb259" /><rect
     y="79.800003"
     x="34.200001"
     height="11.4"
     width="22.850779"
     id="rect900"
     style="fill:#ffb259;fill-opacity:1" /><polygon
     transform="matrix(1.0133333,0,0,0.99708455,34.2,17.18309)"
     class="st1"
     points="0,62.8 22.5,74.2 22.5,97.1 0,85.6 "
     id="polygon18-60-28"
     style="fill:#6f2277" /><rect
     y="79.800003"
     x="57"
     height="11.366764"
     width="22.799999"
     id="rect896"
     style="fill:#ffb259;fill-opacity:1" /><polygon
     transform="matrix(1.0178571,0,0,0.99708455,34.098215,17.18309)"
     class="st2"
     points="44.9,62.8 44.9,85.6 22.5,97.1 22.5,74.2 "
     id="polygon20-6-9"
     style="fill:#fd495c" /></g></svg>